<svg id="visual" viewBox="0 0 900 600" width="900" height="600" xmlns="http://www.w3.org/2000/svg" xmlns:xlink="http://www.w3.org/1999/xlink" version="1.1"><rect x="0" y="0" width="900" height="600" fill="#001220"></rect><path d="M0 155L21.5 157.7C43 160.3 86 165.7 128.8 158.8C171.7 152 214.3 133 257.2 144.2C300 155.3 343 196.7 385.8 201.3C428.7 206 471.3 174 514.2 167.7C557 161.3 600 180.7 642.8 177.8C685.7 175 728.3 150 771.2 135.8C814 121.7 857 118.3 878.5 116.7L900 115L900 601L878.5 601C857 601 814 601 771.2 601C728.3 601 685.7 601 642.8 601C600 601 557 601 514.2 601C471.3 601 428.7 601 385.8 601C343 601 300 601 257.2 601C214.3 601 171.7 601 128.8 601C86 601 43 601 21.5 601L0 601Z" fill="#fa7268"></path><path d="M0 225L21.5 221.2C43 217.3 86 209.7 128.8 200.5C171.7 191.3 214.3 180.7 257.2 186.5C300 192.3 343 214.7 385.8 219.7C428.7 224.7 471.3 212.3 514.2 204.5C557 196.7 600 193.3 642.8 190.3C685.7 187.3 728.3 184.7 771.2 183.5C814 182.3 857 182.7 878.5 182.8L900 183L900 601L878.5 601C857 601 814 601 771.2 601C728.3 601 685.7 601 642.8 601C600 601 557 601 514.2 601C471.3 601 428.7 601 385.8 601C343 601 300 601 257.2 601C214.3 601 171.7 601 128.8 601C86 601 43 601 21.5 601L0 601Z" fill="#f46767"></path><path d="M0 291L21.5 285.8C43 280.7 86 270.3 128.8 268.8C171.7 267.3 214.3 274.7 257.2 274.8C300 275 343 268 385.8 271.2C428.7 274.3 471.3 287.7 514.2 282.2C557 276.7 600 252.3 642.8 246.7C685.7 241 728.3 254 771.2 260.2C814 266.3 857 265.7 878.5 265.3L900 265L900 601L878.5 601C857 601 814 601 771.2 601C728.3 601 685.7 601 642.8 601C600 601 557 601 514.2 601C471.3 601 428.7 601 385.8 601C343 601 300 601 257.2 601C214.3 601 171.7 601 128.8 601C86 601 43 601 21.5 601L0 601Z" fill="#ee5c67"></path><path d="M0 348L21.5 356.2C43 364.3 86 380.7 128.8 375.5C171.7 370.3 214.3 343.7 257.2 327.3C300 311 343 305 385.8 298.3C428.7 291.7 471.3 284.3 514.2 283.5C557 282.7 600 288.3 642.8 293C685.7 297.7 728.3 301.3 771.2 316.7C814 332 857 359 878.5 372.5L900 386L900 601L878.5 601C857 601 814 601 771.2 601C728.3 601 685.7 601 642.8 601C600 601 557 601 514.2 601C471.3 601 428.7 601 385.8 601C343 601 300 601 257.2 601C214.3 601 171.7 601 128.8 601C86 601 43 601 21.5 601L0 601Z" fill="#e75167"></path><path d="M0 340L21.5 349.5C43 359 86 378 128.8 394.3C171.7 410.7 214.3 424.3 257.2 427.8C300 431.3 343 424.7 385.8 413.5C428.7 402.3 471.3 386.7 514.2 377.2C557 367.7 600 364.3 642.8 369.5C685.7 374.7 728.3 388.3 771.2 383.8C814 379.3 857 356.7 878.5 345.3L900 334L900 601L878.5 601C857 601 814 601 771.2 601C728.3 601 685.7 601 642.8 601C600 601 557 601 514.2 601C471.3 601 428.7 601 385.8 601C343 601 300 601 257.2 601C214.3 601 171.7 601 128.8 601C86 601 43 601 21.5 601L0 601Z" fill="#df4667"></path><path d="M0 481L21.5 480.7C43 480.3 86 479.7 128.8 465.3C171.7 451 214.3 423 257.2 411.7C300 400.3 343 405.7 385.8 408.3C428.7 411 471.3 411 514.2 415.3C557 419.7 600 428.3 642.8 426.3C685.7 424.3 728.3 411.7 771.2 405.7C814 399.7 857 400.3 878.5 400.7L900 401L900 601L878.5 601C857 601 814 601 771.2 601C728.3 601 685.7 601 642.8 601C600 601 557 601 514.2 601C471.3 601 428.7 601 385.8 601C343 601 300 601 257.2 601C214.3 601 171.7 601 128.8 601C86 601 43 601 21.5 601L0 601Z" fill="#d73b67"></path><path d="M0 450L21.5 461.3C43 472.7 86 495.3 128.8 506.7C171.7 518 214.3 518 257.2 516.3C300 514.7 343 511.3 385.8 506.7C428.7 502 471.3 496 514.2 495.7C557 495.3 600 500.7 642.8 496.8C685.7 493 728.3 480 771.2 474C814 468 857 469 878.5 469.5L900 470L900 601L878.5 601C857 601 814 601 771.2 601C728.3 601 685.7 601 642.8 601C600 601 557 601 514.2 601C471.3 601 428.7 601 385.8 601C343 601 300 601 257.2 601C214.3 601 171.7 601 128.8 601C86 601 43 601 21.5 601L0 601Z" fill="#cf3068"></path><path d="M0 499L21.5 506.8C43 514.7 86 530.3 128.8 537.2C171.7 544 214.3 542 257.2 536.2C300 530.3 343 520.7 385.8 514.2C428.7 507.7 471.3 504.3 514.2 511.8C557 519.3 600 537.7 642.8 545.7C685.7 553.7 728.3 551.3 771.2 545.2C814 539 857 529 878.5 524L900 519L900 601L878.5 601C857 601 814 601 771.2 601C728.3 601 685.7 601 642.8 601C600 601 557 601 514.2 601C471.3 601 428.7 601 385.8 601C343 601 300 601 257.2 601C214.3 601 171.7 601 128.8 601C86 601 43 601 21.5 601L0 601Z" fill="#c62368"></path></svg>
